<svg width="595" height="659" viewBox="0 0 595 659" fill="none" xmlns="http://www.w3.org/2000/svg">
<g opacity="0.8">
<path d="M749.796 188.196L418.487 240.487L261.535 536.909L592.844 484.618L749.796 188.196Z" fill="#4D4D4D" stroke="#4D4D4D" stroke-opacity="0.2" stroke-miterlimit="1"/>
<path d="M749.796 188.196L418.487 240.487L244.131 -3.64355L575.44 -55.9346L749.796 188.196Z" fill="#999999" stroke="#4D4D4D" stroke-opacity="0.2" stroke-miterlimit="1"/>
<path d="M418.487 240.487L261.535 536.909L87.1782 292.778L244.131 -3.64355L418.487 240.487Z" fill="#999999" stroke="#4D4D4D" stroke-opacity="0.2" stroke-miterlimit="1"/>
<path d="M592.844 484.618L261.535 536.909L87.1782 292.778L418.487 240.487L592.844 484.618Z" fill="#3CAB9A" stroke="#4D4D4D" stroke-opacity="0.2" stroke-miterlimit="1"/>
<path d="M592.844 484.618L749.796 188.196L575.44 -55.9346L418.487 240.487L592.844 484.618Z" fill="#176257" stroke="#4D4D4D" stroke-opacity="0.2" stroke-miterlimit="1"/>
<path d="M575.44 -55.9346L244.131 -3.64355L87.1782 292.778L418.487 240.487L575.44 -55.9346Z" fill="#4ECFBC" stroke="#4D4D4D" stroke-opacity="0.2" stroke-miterlimit="1"/>
</g>
</svg>
