<svg width="294" height="294" viewBox="0 0 294 294" fill="none" xmlns="http://www.w3.org/2000/svg">
<g opacity="0.8">
<path d="M285.19 194.979L147.194 147.194L26.1694 228.92L164.165 276.705L285.19 194.979Z" fill="#4D4D4D" stroke="#4D4D4D" stroke-opacity="0.2" stroke-miterlimit="1"/>
<path d="M285.189 194.979L147.194 147.194L130.224 17.6843L268.219 65.4693L285.189 194.979Z" fill="#999999" stroke="#4D4D4D" stroke-opacity="0.2" stroke-miterlimit="1"/>
<path d="M147.194 147.194L26.1693 228.92L9.19917 99.4095L130.224 17.6843L147.194 147.194Z" fill="#999999" stroke="#4D4D4D" stroke-opacity="0.2" stroke-miterlimit="1"/>
<path d="M164.165 276.705L26.1693 228.92L9.19922 99.4094L147.194 147.194L164.165 276.705Z" fill="#3CAB9A" stroke="#4D4D4D" stroke-opacity="0.2" stroke-miterlimit="1"/>
<path d="M164.164 276.705L285.189 194.979L268.219 65.4692L147.194 147.194L164.164 276.705Z" fill="#176257" stroke="#4D4D4D" stroke-opacity="0.2" stroke-miterlimit="1"/>
<path d="M268.219 65.4693L130.224 17.6843L9.19917 99.4095L147.194 147.194L268.219 65.4693Z" fill="#4ECFBC" stroke="#4D4D4D" stroke-opacity="0.2" stroke-miterlimit="1"/>
</g>
</svg>
