<svg width="504" height="489" viewBox="0 0 504 489" fill="none" xmlns="http://www.w3.org/2000/svg">
<g opacity="0.8">
<path d="M328.662 564.75L165.679 337.679L-113.768 331.823L49.2152 558.894L328.662 564.75Z" fill="#4D4D4D" stroke="#4D4D4D" stroke-opacity="0.2" stroke-miterlimit="1"/>
<path d="M328.662 564.75L165.679 337.679L282.143 116.464L445.126 343.535L328.662 564.75Z" fill="#999999" stroke="#4D4D4D" stroke-opacity="0.2" stroke-miterlimit="1"/>
<path d="M165.679 337.679L-113.768 331.823L2.69562 110.608L282.143 116.464L165.679 337.679Z" fill="#999999" stroke="#4D4D4D" stroke-opacity="0.2" stroke-miterlimit="1"/>
<path d="M49.2155 558.894L-113.768 331.823L2.6958 110.608L165.679 337.679L49.2155 558.894Z" fill="#3CAB9A" stroke="#4D4D4D" stroke-opacity="0.2" stroke-miterlimit="1"/>
<path d="M49.2153 558.894L328.662 564.75L445.126 343.535L165.679 337.679L49.2153 558.894Z" fill="#176257" stroke="#4D4D4D" stroke-opacity="0.2" stroke-miterlimit="1"/>
<path d="M445.126 343.535L282.143 116.464L2.69562 110.608L165.679 337.679L445.126 343.535Z" fill="#4ECFBC" stroke="#4D4D4D" stroke-opacity="0.2" stroke-miterlimit="1"/>
</g>
</svg>
