<svg width="339" height="333" viewBox="0 0 339 333" fill="none" xmlns="http://www.w3.org/2000/svg">
<g opacity="0.8">
<path d="M314.622 182.492L169.195 169.194L71.3 277.558L216.728 290.856L314.622 182.492Z" fill="#4D4D4D" stroke="#4D4D4D" stroke-opacity="0.2" stroke-miterlimit="1"/>
<path d="M314.622 182.492L169.194 169.194L121.661 47.5332L267.089 60.8305L314.622 182.492Z" fill="#999999" stroke="#4D4D4D" stroke-opacity="0.2" stroke-miterlimit="1"/>
<path d="M169.194 169.194L71.2999 277.558L23.7666 155.897L121.661 47.5332L169.194 169.194Z" fill="#999999" stroke="#4D4D4D" stroke-opacity="0.2" stroke-miterlimit="1"/>
<path d="M216.728 290.856L71.2999 277.558L23.7666 155.897L169.194 169.194L216.728 290.856Z" fill="#3CAB9A" stroke="#4D4D4D" stroke-opacity="0.2" stroke-miterlimit="1"/>
<path d="M216.728 290.856L314.622 182.492L267.089 60.8306L169.194 169.194L216.728 290.856Z" fill="#176257" stroke="#4D4D4D" stroke-opacity="0.2" stroke-miterlimit="1"/>
<path d="M267.089 60.8306L121.661 47.5332L23.7666 155.897L169.194 169.194L267.089 60.8306Z" fill="#4ECFBC" stroke="#4D4D4D" stroke-opacity="0.2" stroke-miterlimit="1"/>
</g>
</svg>
