<svg width="1867" height="1095" viewBox="0 0 1867 1095" fill="none" xmlns="http://www.w3.org/2000/svg">
<g clip-path="url(#clip0_135_1289)">
<rect width="1867" height="1095" fill="url(#paint0_linear_135_1289)"/>
<g opacity="0.8">
<path d="M1335.62 944.492L1190.19 931.194L1092.3 1039.56L1237.73 1052.86L1335.62 944.492Z" fill="#4D4D4D" stroke="#4D4D4D" stroke-opacity="0.2" stroke-miterlimit="1"/>
<path d="M1335.62 944.492L1190.19 931.194L1142.66 809.533L1288.09 822.831L1335.62 944.492Z" fill="#999999" stroke="#4D4D4D" stroke-opacity="0.2" stroke-miterlimit="1"/>
<path d="M1190.19 931.194L1092.3 1039.56L1044.77 917.897L1142.66 809.533L1190.19 931.194Z" fill="#999999" stroke="#4D4D4D" stroke-opacity="0.2" stroke-miterlimit="1"/>
<path d="M1237.73 1052.86L1092.3 1039.56L1044.77 917.897L1190.19 931.194L1237.73 1052.86Z" fill="#3CAB9A" stroke="#4D4D4D" stroke-opacity="0.2" stroke-miterlimit="1"/>
<path d="M1237.73 1052.86L1335.62 944.492L1288.09 822.831L1190.19 931.194L1237.73 1052.86Z" fill="#176257" stroke="#4D4D4D" stroke-opacity="0.2" stroke-miterlimit="1"/>
<path d="M1288.09 822.831L1142.66 809.533L1044.77 917.897L1190.19 931.194L1288.09 822.831Z" fill="#4ECFBC" stroke="#4D4D4D" stroke-opacity="0.2" stroke-miterlimit="1"/>
</g>
<g opacity="0.8">
<path d="M391.19 263.979L253.194 216.194L132.169 297.92L270.165 345.705L391.19 263.979Z" fill="#4D4D4D" stroke="#4D4D4D" stroke-opacity="0.2" stroke-miterlimit="1"/>
<path d="M391.189 263.979L253.194 216.194L236.224 86.6843L374.219 134.469L391.189 263.979Z" fill="#999999" stroke="#4D4D4D" stroke-opacity="0.2" stroke-miterlimit="1"/>
<path d="M253.194 216.194L132.169 297.92L115.199 168.409L236.224 86.6843L253.194 216.194Z" fill="#999999" stroke="#4D4D4D" stroke-opacity="0.2" stroke-miterlimit="1"/>
<path d="M270.165 345.705L132.169 297.92L115.199 168.409L253.194 216.194L270.165 345.705Z" fill="#3CAB9A" stroke="#4D4D4D" stroke-opacity="0.2" stroke-miterlimit="1"/>
<path d="M270.164 345.705L391.189 263.979L374.219 134.469L253.194 216.194L270.164 345.705Z" fill="#176257" stroke="#4D4D4D" stroke-opacity="0.2" stroke-miterlimit="1"/>
<path d="M374.219 134.469L236.224 86.6843L115.199 168.409L253.194 216.194L374.219 134.469Z" fill="#4ECFBC" stroke="#4D4D4D" stroke-opacity="0.2" stroke-miterlimit="1"/>
</g>
<rect x="1414.99" y="630" width="34.77" height="32.0309" transform="rotate(25.896 1414.99 630)" fill="#D9D9D9"/>
<rect x="471.989" y="645" width="34.77" height="32.0309" transform="rotate(25.896 471.989 645)" fill="#D9D9D9"/>
<rect x="715.989" y="92" width="34.77" height="32.0309" transform="rotate(25.896 715.989 92)" fill="#D9D9D9"/>
<g opacity="0.8">
<path d="M328.662 1170.75L165.679 943.679L-113.768 937.823L49.2152 1164.89L328.662 1170.75Z" fill="#4D4D4D" stroke="#4D4D4D" stroke-opacity="0.2" stroke-miterlimit="1"/>
<path d="M328.662 1170.75L165.679 943.679L282.143 722.464L445.126 949.535L328.662 1170.75Z" fill="#999999" stroke="#4D4D4D" stroke-opacity="0.2" stroke-miterlimit="1"/>
<path d="M165.679 943.679L-113.768 937.823L2.69562 716.608L282.143 722.464L165.679 943.679Z" fill="#999999" stroke="#4D4D4D" stroke-opacity="0.2" stroke-miterlimit="1"/>
<path d="M49.2155 1164.89L-113.768 937.823L2.6958 716.608L165.679 943.679L49.2155 1164.89Z" fill="#3CAB9A" stroke="#4D4D4D" stroke-opacity="0.2" stroke-miterlimit="1"/>
<path d="M49.2153 1164.89L328.662 1170.75L445.126 949.535L165.679 943.679L49.2153 1164.89Z" fill="#176257" stroke="#4D4D4D" stroke-opacity="0.2" stroke-miterlimit="1"/>
<path d="M445.126 949.535L282.143 722.464L2.69562 716.608L165.679 943.679L445.126 949.535Z" fill="#4ECFBC" stroke="#4D4D4D" stroke-opacity="0.2" stroke-miterlimit="1"/>
</g>
<g opacity="0.8">
<path d="M2021.8 188.196L1690.49 240.487L1533.53 536.909L1864.84 484.618L2021.8 188.196Z" fill="#4D4D4D" stroke="#4D4D4D" stroke-opacity="0.2" stroke-miterlimit="1"/>
<path d="M2021.8 188.196L1690.49 240.487L1516.13 -3.64355L1847.44 -55.9346L2021.8 188.196Z" fill="#999999" stroke="#4D4D4D" stroke-opacity="0.2" stroke-miterlimit="1"/>
<path d="M1690.49 240.487L1533.53 536.909L1359.18 292.778L1516.13 -3.64355L1690.49 240.487Z" fill="#999999" stroke="#4D4D4D" stroke-opacity="0.2" stroke-miterlimit="1"/>
<path d="M1864.84 484.618L1533.53 536.909L1359.18 292.778L1690.49 240.487L1864.84 484.618Z" fill="#3CAB9A" stroke="#4D4D4D" stroke-opacity="0.2" stroke-miterlimit="1"/>
<path d="M1864.84 484.618L2021.8 188.196L1847.44 -55.9346L1690.49 240.487L1864.84 484.618Z" fill="#176257" stroke="#4D4D4D" stroke-opacity="0.2" stroke-miterlimit="1"/>
<path d="M1847.44 -55.9346L1516.13 -3.64355L1359.18 292.778L1690.49 240.487L1847.44 -55.9346Z" fill="#4ECFBC" stroke="#4D4D4D" stroke-opacity="0.2" stroke-miterlimit="1"/>
</g>
<path d="M806.045 866.909V896H802.523V866.909H806.045ZM816.006 882.875V896H812.654V874.182H815.893V877.591H816.177C816.688 876.483 817.465 875.593 818.506 874.92C819.548 874.239 820.893 873.898 822.54 873.898C824.018 873.898 825.31 874.201 826.418 874.807C827.526 875.403 828.388 876.312 829.004 877.534C829.619 878.746 829.927 880.28 829.927 882.136V896H826.575V882.364C826.575 880.65 826.129 879.314 825.239 878.358C824.349 877.392 823.128 876.909 821.575 876.909C820.504 876.909 819.548 877.141 818.705 877.605C817.872 878.069 817.214 878.746 816.731 879.636C816.248 880.527 816.006 881.606 816.006 882.875ZM836.053 896V874.182H839.405V896H836.053ZM837.757 870.545C837.104 870.545 836.54 870.323 836.067 869.878C835.603 869.433 835.371 868.898 835.371 868.273C835.371 867.648 835.603 867.113 836.067 866.668C836.54 866.223 837.104 866 837.757 866C838.411 866 838.969 866.223 839.433 866.668C839.907 867.113 840.143 867.648 840.143 868.273C840.143 868.898 839.907 869.433 839.433 869.878C838.969 870.323 838.411 870.545 837.757 870.545ZM854.408 896.455C852.363 896.455 850.602 895.972 849.124 895.006C847.647 894.04 846.511 892.709 845.715 891.014C844.92 889.319 844.522 887.383 844.522 885.205C844.522 882.989 844.929 881.033 845.744 879.338C846.567 877.634 847.713 876.303 849.181 875.347C850.658 874.381 852.382 873.898 854.352 873.898C855.886 873.898 857.268 874.182 858.499 874.75C859.73 875.318 860.739 876.114 861.525 877.136C862.311 878.159 862.799 879.352 862.988 880.716H859.636C859.38 879.722 858.812 878.841 857.931 878.074C857.06 877.297 855.886 876.909 854.408 876.909C853.102 876.909 851.956 877.25 850.971 877.932C849.996 878.604 849.233 879.556 848.684 880.787C848.144 882.009 847.874 883.443 847.874 885.091C847.874 886.777 848.139 888.244 848.67 889.494C849.21 890.744 849.967 891.715 850.942 892.406C851.927 893.098 853.083 893.443 854.408 893.443C855.28 893.443 856.07 893.292 856.781 892.989C857.491 892.686 858.092 892.25 858.585 891.682C859.077 891.114 859.427 890.432 859.636 889.636H862.988C862.799 890.924 862.33 892.084 861.582 893.116C860.843 894.139 859.863 894.954 858.641 895.56C857.429 896.156 856.018 896.455 854.408 896.455ZM867.888 896V874.182H871.241V896H867.888ZM869.593 870.545C868.94 870.545 868.376 870.323 867.903 869.878C867.439 869.433 867.207 868.898 867.207 868.273C867.207 867.648 867.439 867.113 867.903 866.668C868.376 866.223 868.94 866 869.593 866C870.246 866 870.805 866.223 871.269 866.668C871.743 867.113 871.979 867.648 871.979 868.273C871.979 868.898 871.743 869.433 871.269 869.878C870.805 870.323 870.246 870.545 869.593 870.545ZM883.801 896.511C882.419 896.511 881.164 896.251 880.037 895.73C878.91 895.2 878.015 894.438 877.352 893.443C876.689 892.439 876.358 891.227 876.358 889.807C876.358 888.557 876.604 887.544 877.097 886.767C877.589 885.981 878.247 885.366 879.071 884.92C879.895 884.475 880.804 884.144 881.798 883.926C882.802 883.699 883.811 883.519 884.824 883.386C886.15 883.216 887.224 883.088 888.048 883.003C888.882 882.908 889.488 882.752 889.866 882.534C890.255 882.316 890.449 881.937 890.449 881.398V881.284C890.449 879.883 890.065 878.794 889.298 878.017C888.541 877.241 887.39 876.852 885.847 876.852C884.246 876.852 882.991 877.203 882.082 877.903C881.173 878.604 880.534 879.352 880.165 880.148L876.983 879.011C877.551 877.686 878.309 876.653 879.256 875.915C880.212 875.167 881.254 874.646 882.381 874.352C883.517 874.049 884.634 873.898 885.733 873.898C886.434 873.898 887.239 873.983 888.148 874.153C889.066 874.314 889.952 874.651 890.804 875.162C891.666 875.673 892.381 876.445 892.949 877.477C893.517 878.509 893.801 879.892 893.801 881.625V896H890.449V893.045H890.278C890.051 893.519 889.672 894.026 889.142 894.565C888.612 895.105 887.906 895.564 887.026 895.943C886.145 896.322 885.07 896.511 883.801 896.511ZM884.312 893.5C885.638 893.5 886.756 893.24 887.665 892.719C888.583 892.198 889.275 891.526 889.739 890.702C890.212 889.878 890.449 889.011 890.449 888.102V885.034C890.307 885.205 889.994 885.361 889.511 885.503C889.038 885.635 888.489 885.754 887.864 885.858C887.248 885.953 886.647 886.038 886.06 886.114C885.482 886.18 885.013 886.237 884.653 886.284C883.782 886.398 882.968 886.582 882.21 886.838C881.462 887.084 880.856 887.458 880.392 887.96C879.938 888.453 879.71 889.125 879.71 889.977C879.71 891.142 880.141 892.023 881.003 892.619C881.874 893.206 882.977 893.5 884.312 893.5ZM899.92 896V874.182H903.158V877.477H903.386C903.783 876.398 904.503 875.522 905.545 874.849C906.586 874.177 907.761 873.841 909.067 873.841C909.314 873.841 909.621 873.846 909.991 873.855C910.36 873.865 910.639 873.879 910.829 873.898V877.307C910.715 877.278 910.455 877.236 910.048 877.179C909.65 877.113 909.228 877.08 908.783 877.08C907.723 877.08 906.776 877.302 905.942 877.747C905.119 878.183 904.465 878.789 903.982 879.565C903.509 880.332 903.272 881.208 903.272 882.193V896H899.92ZM941.507 879.068L938.496 879.92C938.306 879.419 938.027 878.931 937.658 878.457C937.298 877.974 936.805 877.577 936.18 877.264C935.555 876.952 934.755 876.795 933.78 876.795C932.445 876.795 931.332 877.103 930.442 877.719C929.561 878.325 929.121 879.097 929.121 880.034C929.121 880.867 929.424 881.526 930.03 882.009C930.636 882.491 931.583 882.894 932.871 883.216L936.109 884.011C938.06 884.485 939.514 885.209 940.47 886.185C941.427 887.151 941.905 888.396 941.905 889.92C941.905 891.17 941.545 892.288 940.825 893.273C940.115 894.258 939.121 895.034 937.842 895.602C936.564 896.17 935.077 896.455 933.382 896.455C931.157 896.455 929.315 895.972 927.857 895.006C926.398 894.04 925.475 892.629 925.087 890.773L928.268 889.977C928.571 891.152 929.144 892.032 929.987 892.619C930.839 893.206 931.952 893.5 933.325 893.5C934.888 893.5 936.128 893.169 937.047 892.506C937.975 891.833 938.439 891.028 938.439 890.091C938.439 889.333 938.174 888.699 937.643 888.188C937.113 887.667 936.299 887.278 935.2 887.023L931.564 886.17C929.566 885.697 928.098 884.963 927.161 883.969C926.232 882.965 925.768 881.71 925.768 880.205C925.768 878.973 926.114 877.884 926.805 876.938C927.506 875.991 928.458 875.247 929.661 874.707C930.873 874.168 932.246 873.898 933.78 873.898C935.939 873.898 937.634 874.371 938.865 875.318C940.106 876.265 940.986 877.515 941.507 879.068ZM956.099 896.455C953.996 896.455 952.183 895.991 950.658 895.062C949.143 894.125 947.974 892.818 947.15 891.142C946.335 889.456 945.928 887.496 945.928 885.261C945.928 883.027 946.335 881.057 947.15 879.352C947.974 877.638 949.12 876.303 950.587 875.347C952.065 874.381 953.788 873.898 955.758 873.898C956.894 873.898 958.016 874.087 959.124 874.466C960.232 874.845 961.241 875.46 962.15 876.312C963.059 877.155 963.783 878.273 964.323 879.665C964.863 881.057 965.133 882.771 965.133 884.807V886.227H948.315V883.33H961.724C961.724 882.098 961.478 881 960.985 880.034C960.502 879.068 959.811 878.306 958.911 877.747C958.021 877.188 956.97 876.909 955.758 876.909C954.423 876.909 953.267 877.241 952.292 877.903C951.326 878.557 950.583 879.409 950.062 880.46C949.541 881.511 949.281 882.638 949.281 883.841V885.773C949.281 887.42 949.565 888.817 950.133 889.963C950.71 891.099 951.511 891.966 952.533 892.562C953.556 893.15 954.745 893.443 956.099 893.443C956.979 893.443 957.775 893.32 958.485 893.074C959.205 892.818 959.825 892.439 960.346 891.938C960.867 891.426 961.269 890.792 961.553 890.034L964.792 890.943C964.451 892.042 963.878 893.008 963.073 893.841C962.268 894.665 961.274 895.309 960.09 895.773C958.906 896.227 957.576 896.455 956.099 896.455ZM985.687 879.068L982.675 879.92C982.486 879.419 982.207 878.931 981.837 878.457C981.478 877.974 980.985 877.577 980.36 877.264C979.735 876.952 978.935 876.795 977.96 876.795C976.624 876.795 975.512 877.103 974.621 877.719C973.741 878.325 973.3 879.097 973.3 880.034C973.3 880.867 973.603 881.526 974.21 882.009C974.816 882.491 975.763 882.894 977.05 883.216L980.289 884.011C982.24 884.485 983.693 885.209 984.65 886.185C985.606 887.151 986.085 888.396 986.085 889.92C986.085 891.17 985.725 892.288 985.005 893.273C984.295 894.258 983.3 895.034 982.022 895.602C980.744 896.17 979.257 896.455 977.562 896.455C975.336 896.455 973.495 895.972 972.036 895.006C970.578 894.04 969.655 892.629 969.266 890.773L972.448 889.977C972.751 891.152 973.324 892.032 974.167 892.619C975.019 893.206 976.132 893.5 977.505 893.5C979.067 893.5 980.308 893.169 981.227 892.506C982.155 891.833 982.619 891.028 982.619 890.091C982.619 889.333 982.353 888.699 981.823 888.188C981.293 887.667 980.478 887.278 979.38 887.023L975.744 886.17C973.746 885.697 972.278 884.963 971.34 883.969C970.412 882.965 969.948 881.71 969.948 880.205C969.948 878.973 970.294 877.884 970.985 876.938C971.686 875.991 972.638 875.247 973.84 874.707C975.052 874.168 976.425 873.898 977.96 873.898C980.119 873.898 981.814 874.371 983.045 875.318C984.285 876.265 985.166 877.515 985.687 879.068ZM991.131 896V874.182H994.483V896H991.131ZM992.835 870.545C992.182 870.545 991.618 870.323 991.145 869.878C990.681 869.433 990.449 868.898 990.449 868.273C990.449 867.648 990.681 867.113 991.145 866.668C991.618 866.223 992.182 866 992.835 866C993.489 866 994.047 866.223 994.511 866.668C994.985 867.113 995.222 867.648 995.222 868.273C995.222 868.898 994.985 869.433 994.511 869.878C994.047 870.323 993.489 870.545 992.835 870.545ZM1009.49 896.455C1007.52 896.455 1005.79 895.986 1004.3 895.048C1002.82 894.111 1001.67 892.799 1000.84 891.114C1000.01 889.428 999.6 887.458 999.6 885.205C999.6 882.932 1000.01 880.948 1000.84 879.253C1001.67 877.558 1002.82 876.241 1004.3 875.304C1005.79 874.366 1007.52 873.898 1009.49 873.898C1011.46 873.898 1013.18 874.366 1014.66 875.304C1016.14 876.241 1017.3 877.558 1018.12 879.253C1018.96 880.948 1019.37 882.932 1019.37 885.205C1019.37 887.458 1018.96 889.428 1018.12 891.114C1017.3 892.799 1016.14 894.111 1014.66 895.048C1013.18 895.986 1011.46 896.455 1009.49 896.455ZM1009.49 893.443C1010.98 893.443 1012.21 893.06 1013.18 892.293C1014.15 891.526 1014.86 890.517 1015.32 889.267C1015.79 888.017 1016.02 886.663 1016.02 885.205C1016.02 883.746 1015.79 882.387 1015.32 881.128C1014.86 879.868 1014.15 878.85 1013.18 878.074C1012.21 877.297 1010.98 876.909 1009.49 876.909C1007.99 876.909 1006.76 877.297 1005.79 878.074C1004.83 878.85 1004.11 879.868 1003.65 881.128C1003.18 882.387 1002.95 883.746 1002.95 885.205C1002.95 886.663 1003.18 888.017 1003.65 889.267C1004.11 890.517 1004.83 891.526 1005.79 892.293C1006.76 893.06 1007.99 893.443 1009.49 893.443ZM1027.84 882.875V896H1024.49V874.182H1027.73V877.591H1028.01C1028.52 876.483 1029.3 875.593 1030.34 874.92C1031.38 874.239 1032.73 873.898 1034.38 873.898C1035.85 873.898 1037.15 874.201 1038.25 874.807C1039.36 875.403 1040.22 876.312 1040.84 877.534C1041.46 878.746 1041.76 880.28 1041.76 882.136V896H1038.41V882.364C1038.41 880.65 1037.97 879.314 1037.08 878.358C1036.19 877.392 1034.96 876.909 1033.41 876.909C1032.34 876.909 1031.38 877.141 1030.54 877.605C1029.71 878.069 1029.05 878.746 1028.57 879.636C1028.08 880.527 1027.84 881.606 1027.84 882.875Z" fill="white"/>
<rect x="618" y="279" width="592" height="499" rx="20" fill="white" fill-opacity="0.2"/>
<rect x="744" y="826" width="339" height="110" rx="20" fill="white" fill-opacity="0.2"/>
<path d="M790.5 562C792.75 562.083 794.667 562.917 796.25 564.5C797.833 566 798.667 567.875 798.75 570.125V591H839.375V570.125C839.458 567.792 840.333 565.875 842 564.375C843.667 562.792 845.667 562 848 562C850.25 562.083 852.167 562.917 853.75 564.5C855.333 566 856.167 567.875 856.25 570.125V631.375C855.75 636.375 853 639.083 848 639.5C845.667 639.5 843.625 638.75 841.875 637.25C840.208 635.667 839.375 633.708 839.375 631.375V607.75H798.75V631.375C798.25 636.375 795.5 639.083 790.5 639.5C788.167 639.5 786.125 638.75 784.375 637.25C782.708 635.667 781.875 633.708 781.875 631.375V570.125C781.958 567.792 782.833 565.875 784.5 564.375C786.167 562.792 788.167 562 790.5 562ZM869.125 629.375C869.125 627.042 869.917 625.083 871.5 623.5C873.167 621.833 875.167 621 877.5 621H901.5V580.75H877.5C875.167 580.75 873.208 579.917 871.625 578.25C869.958 576.667 869.125 574.708 869.125 572.375C869.125 570.042 869.917 568.083 871.5 566.5C873.167 564.833 875.167 564 877.5 564H942.25C944.583 564 946.583 564.792 948.25 566.375C949.833 568.042 950.625 570.042 950.625 572.375C950.625 574.708 949.792 576.708 948.125 578.375C946.542 579.958 944.583 580.75 942.25 580.75H918.375V621H942.25C944.583 621 946.583 621.792 948.25 623.375C949.833 625.042 950.625 627.042 950.625 629.375C950.625 631.708 949.792 633.708 948.125 635.375C946.542 636.958 944.583 637.75 942.25 637.75H877.5C875.167 637.75 873.208 636.917 871.625 635.25C869.958 633.667 869.125 631.708 869.125 629.375ZM980.375 631.375C979.875 636.375 977.125 639.083 972.125 639.5C969.792 639.5 967.75 638.75 966 637.25C964.333 635.667 963.5 633.708 963.5 631.375V572.125C963.583 569.792 964.458 567.875 966.125 566.375C967.792 564.792 969.792 564 972.125 564H978.25H993.625H1024.5C1025 564 1025.5 564.042 1026 564.125H1026.75C1032.58 564.292 1037.38 565.625 1041.12 568.125C1044.88 570.625 1047.58 573.5 1049.25 576.75C1050.92 579.917 1051.75 583.125 1051.75 586.375C1051.75 589.708 1050.92 593 1049.25 596.25C1047.67 599.417 1044.96 602.25 1041.12 604.75C1037.38 607.25 1032.58 608.583 1026.75 608.75H1004.75C1005.42 612.917 1006.79 616 1008.88 618C1010.88 620 1013.42 621 1016.5 621H1043.5C1045.83 621.083 1047.75 621.958 1049.25 623.625C1050.83 625.292 1051.62 627.292 1051.62 629.625C1051.54 631.875 1050.71 633.792 1049.12 635.375C1047.62 636.875 1045.75 637.667 1043.5 637.75H1014.25C1008.08 637.833 1002.5 635.417 997.5 630.5C992.5 625.583 989.458 619.75 988.375 613C986.875 605.5 986.125 601.292 986.125 600.375C986.125 598.042 986.917 596.083 988.5 594.5C990.167 592.833 992.167 592 994.5 592H1027.5C1029.08 591.917 1030.38 591.583 1031.38 591C1032.46 590.333 1033.25 589.625 1033.75 588.875C1034.25 588.042 1034.5 587.208 1034.5 586.375C1034.5 585.542 1034.25 584.75 1033.75 584C1033.25 583.167 1032.46 582.458 1031.38 581.875C1030.38 581.208 1029.08 580.833 1027.5 580.75H993.625H983.625C981.458 580.833 980.375 581.917 980.375 584V631.375Z" fill="white"/>
<path d="M926.25 369.659C926.25 373.406 924.674 376.773 922.167 379.094V394.976H963C969.498 394.976 975.729 397.643 980.324 402.391C984.919 407.139 987.5 413.578 987.5 420.293V504.683C987.5 511.397 984.919 517.837 980.324 522.585C975.729 527.333 969.498 530 963 530H865C858.502 530 852.271 527.333 847.676 522.585C843.081 517.837 840.5 511.397 840.5 504.683V420.293C840.5 413.578 843.081 407.139 847.676 402.391C852.271 397.643 858.502 394.976 865 394.976H905.833V379.094C904.31 377.686 903.152 375.907 902.465 373.919C901.777 371.93 901.581 369.796 901.896 367.709C902.211 365.623 903.025 363.651 904.266 361.973C905.507 360.295 907.134 358.965 908.999 358.103C910.864 357.241 912.909 356.875 914.946 357.038C916.983 357.201 918.949 357.888 920.663 359.037C922.378 360.185 923.787 361.759 924.763 363.614C925.739 365.469 926.25 367.547 926.25 369.659ZM865 411.854C862.834 411.854 860.757 412.743 859.225 414.326C857.694 415.908 856.833 418.055 856.833 420.293V504.683C856.833 506.921 857.694 509.068 859.225 510.65C860.757 512.233 862.834 513.122 865 513.122H963C965.166 513.122 967.243 512.233 968.775 510.65C970.306 509.068 971.167 506.921 971.167 504.683V420.293C971.167 418.055 970.306 415.908 968.775 414.326C967.243 412.743 965.166 411.854 963 411.854H905.833H865ZM832.333 437.171H816V487.805H832.333V437.171ZM995.667 437.171H1012V487.805H995.667V437.171ZM889.5 475.146C892.749 475.146 895.865 473.813 898.162 471.439C900.459 469.065 901.75 465.845 901.75 462.488C901.75 459.131 900.459 455.911 898.162 453.537C895.865 451.163 892.749 449.829 889.5 449.829C886.251 449.829 883.135 451.163 880.838 453.537C878.541 455.911 877.25 459.131 877.25 462.488C877.25 465.845 878.541 469.065 880.838 471.439C883.135 473.813 886.251 475.146 889.5 475.146ZM938.5 475.146C941.749 475.146 944.865 473.813 947.162 471.439C949.459 469.065 950.75 465.845 950.75 462.488C950.75 459.131 949.459 455.911 947.162 453.537C944.865 451.163 941.749 449.829 938.5 449.829C935.251 449.829 932.135 451.163 929.838 453.537C927.541 455.911 926.25 459.131 926.25 462.488C926.25 465.845 927.541 469.065 929.838 471.439C932.135 473.813 935.251 475.146 938.5 475.146Z" fill="white"/>
</g>
<defs>
<linearGradient id="paint0_linear_135_1289" x1="0" y1="0" x2="1867" y2="1113.5" gradientUnits="userSpaceOnUse">
<stop offset="0.00296857" stop-color="#2EC8B2"/>
<stop offset="0.95" stop-color="#176257"/>
</linearGradient>
<clipPath id="clip0_135_1289">
<rect width="1867" height="1095" fill="white"/>
</clipPath>
</defs>
</svg>
