<svg width="361" height="196" viewBox="0 0 361 196" fill="none" xmlns="http://www.w3.org/2000/svg">
<path d="M8.25 95C9.375 95.0417 10.3333 95.4583 11.125 96.25C11.9167 97 12.3333 97.9375 12.375 99.0625V109.5H32.6875V99.0625C32.7292 97.8958 33.1667 96.9375 34 96.1875C34.8333 95.3958 35.8333 95 37 95C38.125 95.0417 39.0833 95.4583 39.875 96.25C40.6667 97 41.0833 97.9375 41.125 99.0625V129.688C40.875 132.188 39.5 133.542 37 133.75C35.8333 133.75 34.8125 133.375 33.9375 132.625C33.1042 131.833 32.6875 130.854 32.6875 129.688V117.875H12.375V129.688C12.125 132.188 10.75 133.542 8.25 133.75C7.08333 133.75 6.0625 133.375 5.1875 132.625C4.35417 131.833 3.9375 130.854 3.9375 129.688V99.0625C3.97917 97.8958 4.41667 96.9375 5.25 96.1875C6.08333 95.3958 7.08333 95 8.25 95ZM47.5625 128.688C47.5625 127.521 47.9583 126.542 48.75 125.75C49.5833 124.917 50.5833 124.5 51.75 124.5H63.75V104.375H51.75C50.5833 104.375 49.6042 103.958 48.8125 103.125C47.9792 102.333 47.5625 101.354 47.5625 100.188C47.5625 99.0208 47.9583 98.0417 48.75 97.25C49.5833 96.4167 50.5833 96 51.75 96H84.125C85.2917 96 86.2917 96.3958 87.125 97.1875C87.9167 98.0208 88.3125 99.0208 88.3125 100.188C88.3125 101.354 87.8958 102.354 87.0625 103.188C86.2708 103.979 85.2917 104.375 84.125 104.375H72.1875V124.5H84.125C85.2917 124.5 86.2917 124.896 87.125 125.688C87.9167 126.521 88.3125 127.521 88.3125 128.688C88.3125 129.854 87.8958 130.854 87.0625 131.688C86.2708 132.479 85.2917 132.875 84.125 132.875H51.75C50.5833 132.875 49.6042 132.458 48.8125 131.625C47.9792 130.833 47.5625 129.854 47.5625 128.688ZM103.188 129.688C102.938 132.188 101.562 133.542 99.0625 133.75C97.8958 133.75 96.875 133.375 96 132.625C95.1667 131.833 94.75 130.854 94.75 129.688V100.062C94.7917 98.8958 95.2292 97.9375 96.0625 97.1875C96.8958 96.3958 97.8958 96 99.0625 96H102.125H109.812H125.25C125.5 96 125.75 96.0208 126 96.0625H126.375C129.292 96.1458 131.688 96.8125 133.562 98.0625C135.438 99.3125 136.792 100.75 137.625 102.375C138.458 103.958 138.875 105.562 138.875 107.188C138.875 108.854 138.458 110.5 137.625 112.125C136.833 113.708 135.479 115.125 133.562 116.375C131.688 117.625 129.292 118.292 126.375 118.375H115.375C115.708 120.458 116.396 122 117.438 123C118.438 124 119.708 124.5 121.25 124.5H134.75C135.917 124.542 136.875 124.979 137.625 125.812C138.417 126.646 138.812 127.646 138.812 128.812C138.771 129.938 138.354 130.896 137.562 131.688C136.812 132.438 135.875 132.833 134.75 132.875H120.125C117.042 132.917 114.25 131.708 111.75 129.25C109.25 126.792 107.729 123.875 107.188 120.5C106.438 116.75 106.062 114.646 106.062 114.188C106.062 113.021 106.458 112.042 107.25 111.25C108.083 110.417 109.083 110 110.25 110H126.75C127.542 109.958 128.188 109.792 128.688 109.5C129.229 109.167 129.625 108.812 129.875 108.438C130.125 108.021 130.25 107.604 130.25 107.188C130.25 106.771 130.125 106.375 129.875 106C129.625 105.583 129.229 105.229 128.688 104.938C128.188 104.604 127.542 104.417 126.75 104.375H109.812H104.812C103.729 104.417 103.188 104.958 103.188 106V129.688Z" fill="white"/>
<path d="M72.5625 6.0733C72.5625 7.87095 71.7825 9.48642 70.5417 10.5998V18.2196H90.75C93.9657 18.2196 97.0498 19.4993 99.3237 21.7772C101.598 24.0551 102.875 27.1445 102.875 30.3659V70.8537C102.875 74.0751 101.598 77.1646 99.3237 79.4424C97.0498 81.7203 93.9657 83 90.75 83H42.25C39.0342 83 35.9502 81.7203 33.6763 79.4424C31.4025 77.1646 30.125 74.0751 30.125 70.8537V30.3659C30.125 27.1445 31.4025 24.0551 33.6763 21.7772C35.9502 19.4993 39.0342 18.2196 42.25 18.2196H62.4583V10.5998C61.7046 9.92446 61.1314 9.07094 60.7911 8.11698C60.4508 7.16303 60.3541 6.13894 60.5098 5.13797C60.6655 4.13701 61.0687 3.19097 61.6827 2.38599C62.2967 1.58102 63.1019 0.942687 64.0251 0.529122C64.9482 0.115558 65.96 -0.0601005 66.9682 0.0181427C67.9765 0.096386 68.9492 0.426045 69.7977 0.977101C70.6463 1.52816 71.3438 2.2831 71.8267 3.1732C72.3096 4.06329 72.5625 5.06025 72.5625 6.0733ZM42.25 26.3172C41.1781 26.3172 40.1501 26.7437 39.3921 27.503C38.6342 28.2623 38.2083 29.2921 38.2083 30.3659V70.8537C38.2083 71.9275 38.6342 72.9573 39.3921 73.7166C40.1501 74.4759 41.1781 74.9025 42.25 74.9025H90.75C91.8219 74.9025 92.8499 74.4759 93.6079 73.7166C94.3659 72.9573 94.7917 71.9275 94.7917 70.8537V30.3659C94.7917 29.2921 94.3659 28.2623 93.6079 27.503C92.8499 26.7437 91.8219 26.3172 90.75 26.3172H62.4583H42.25ZM26.0833 38.4635H18V62.7561H26.0833V38.4635ZM106.917 38.4635H115V62.7561H106.917V38.4635ZM54.375 56.683C55.9829 56.683 57.5249 56.0431 58.6618 54.9042C59.7988 53.7652 60.4375 52.2205 60.4375 50.6098C60.4375 48.9991 59.7988 47.4544 58.6618 46.3154C57.5249 45.1765 55.9829 44.5367 54.375 44.5367C52.7671 44.5367 51.2251 45.1765 50.0882 46.3154C48.9512 47.4544 48.3125 48.9991 48.3125 50.6098C48.3125 52.2205 48.9512 53.7652 50.0882 54.9042C51.2251 56.0431 52.7671 56.683 54.375 56.683ZM78.625 56.683C80.2329 56.683 81.7749 56.0431 82.9118 54.9042C84.0488 53.7652 84.6875 52.2205 84.6875 50.6098C84.6875 48.9991 84.0488 47.4544 82.9118 46.3154C81.7749 45.1765 80.2329 44.5367 78.625 44.5367C77.0171 44.5367 75.4751 45.1765 74.3382 46.3154C73.2012 47.4544 72.5625 48.9991 72.5625 50.6098C72.5625 52.2205 73.2012 53.7652 74.3382 54.9042C75.4751 56.0431 77.0171 56.683 78.625 56.683Z" fill="white"/>
</svg>
