<svg width="40" height="40" viewBox="0 0 40 40" fill="none" xmlns="http://www.w3.org/2000/svg">
<path fill-rule="evenodd" clip-rule="evenodd" d="M23.7984 3.58683C23.1817 3.3335 22.3984 3.3335 20.8334 3.3335C19.2684 3.3335 18.4867 3.3335 17.8684 3.58683C17.0475 3.92385 16.394 4.5731 16.0517 5.39183C15.895 5.7635 15.835 6.1985 15.81 6.83016C15.7989 7.28784 15.6713 7.73511 15.4391 8.12969C15.207 8.52428 14.878 8.85313 14.4834 9.08516C14.0813 9.30867 13.6293 9.42707 13.1692 9.4294C12.7092 9.43173 12.256 9.31792 11.8517 9.0985C11.2884 8.80183 10.88 8.6385 10.4767 8.58516C9.5943 8.4693 8.70182 8.70649 7.99337 9.24516C7.46337 9.6485 7.0717 10.3218 6.29004 11.6668C5.5067 13.0118 5.1167 13.6835 5.02837 14.3418C4.9117 15.2185 5.1517 16.1052 5.69504 16.8068C5.9417 17.1268 6.29004 17.3952 6.82837 17.7318C7.62337 18.2268 8.13337 19.0702 8.13337 20.0002C8.13337 20.9302 7.62337 21.7735 6.83004 22.2668C6.29004 22.6052 5.9417 22.8735 5.69337 23.1935C5.42518 23.5401 5.22832 23.9363 5.11418 24.3594C5.00004 24.7825 4.97087 25.2241 5.02837 25.6585C5.1167 26.3152 5.5067 26.9885 6.29004 28.3335C7.07337 29.6785 7.46337 30.3502 7.99337 30.7552C8.70004 31.2935 9.59337 31.5302 10.4767 31.4152C10.88 31.3618 11.2884 31.1985 11.8517 30.9018C12.2562 30.6821 12.7097 30.5681 13.1701 30.5705C13.6304 30.5728 14.0827 30.6914 14.485 30.9152C15.295 31.3818 15.775 32.2402 15.81 33.1702C15.835 33.8035 15.895 34.2368 16.0517 34.6085C16.3917 35.4252 17.045 36.0752 17.8684 36.4135C18.485 36.6668 19.2684 36.6668 20.8334 36.6668C22.3984 36.6668 23.1817 36.6668 23.7984 36.4135C24.6193 36.0765 25.2727 35.4272 25.615 34.6085C25.7717 34.2368 25.8317 33.8035 25.8567 33.1702C25.89 32.2402 26.3717 31.3802 27.1834 30.9152C27.5855 30.6917 28.0375 30.5733 28.4975 30.5709C28.9575 30.5686 29.4107 30.6824 29.815 30.9018C30.3784 31.1985 30.7867 31.3618 31.19 31.4152C32.0734 31.5318 32.9667 31.2935 33.6734 30.7552C34.2034 30.3518 34.595 29.6785 35.3767 28.3335C36.16 26.9885 36.55 26.3168 36.6384 25.6585C36.6956 25.224 36.6662 24.7824 36.5518 24.3593C36.4373 23.9362 36.2402 23.5399 35.9717 23.1935C35.725 22.8735 35.3767 22.6052 34.8384 22.2685C34.0434 21.7735 33.5334 20.9302 33.5334 20.0002C33.5334 19.0702 34.0434 18.2268 34.8367 17.7335C35.3767 17.3952 35.725 17.1268 35.9734 16.8068C36.2416 16.4603 36.4384 16.064 36.5526 15.6409C36.6667 15.2178 36.6959 14.7763 36.6384 14.3418C36.55 13.6852 36.16 13.0118 35.3767 11.6668C34.5934 10.3218 34.2034 9.65016 33.6734 9.24516C32.9649 8.70649 32.0724 8.4693 31.19 8.58516C30.7867 8.6385 30.3784 8.80183 29.815 9.0985C29.4105 9.31821 28.957 9.43219 28.4967 9.42986C28.0363 9.42753 27.584 9.30896 27.1817 9.08516C26.7874 8.85293 26.4587 8.52399 26.2269 8.12942C25.9951 7.73484 25.8676 7.28768 25.8567 6.83016C25.8317 6.19683 25.7717 5.7635 25.615 5.39183C25.4456 4.98639 25.198 4.6183 24.8863 4.30859C24.5746 3.99888 24.2049 3.75363 23.7984 3.58683ZM20.8334 25.0002C23.6167 25.0002 25.8717 22.7618 25.8717 20.0002C25.8717 17.2385 23.615 15.0002 20.8334 15.0002C18.05 15.0002 15.795 17.2385 15.795 20.0002C15.795 22.7618 18.0517 25.0002 20.8334 25.0002Z" fill="#03312A"/>
</svg>
